<svg xmlns="http://www.w3.org/2000/svg" version="1.1" xmlns:xlink="http://www.w3.org/1999/xlink" xmlns:svgjs="http://svgjs.dev/svgjs" width="1000" height="464" viewBox="0 0 1000 464"><g transform="matrix(1,0,0,1,-0.6060606060606233,0.2989265675645072)"><svg viewBox="0 0 396 184" data-background-color="#ffffff" preserveAspectRatio="xMidYMid meet" height="464" width="1000" xmlns="http://www.w3.org/2000/svg" xmlns:xlink="http://www.w3.org/1999/xlink"><g id="tight-bounds" transform="matrix(1,0,0,1,0.2400000000000091,-0.11853984575833465)"><svg viewBox="0 0 395.52 184.23707969151667" height="184.23707969151667" width="395.52"><g><svg viewBox="0 0 395.52000000000004 184.2370796915167" height="184.23707969151667" width="395.52"><g><svg viewBox="0 0 395.52000000000004 184.2370796915167" height="184.2370796915167" width="395.52000000000004"><g><svg viewBox="0 0 395.52000000000004 184.2370796915167" height="184.2370796915167" width="395.52000000000004"><g><svg viewBox="0 0 395.52000000000004 184.2370796915167" height="184.2370796915167" width="395.52000000000004"><g transform="matrix(1,0,0,1,0,0)"><svg width="395.52000000000004" viewBox="3.05 -41.5 97.24000000000001 45.3" height="184.2370796915167" data-palette-color="#d36d15"><path d="M7.3 3.8L7.3 3.8Q4.9 3.1 3.98 2.4 3.05 1.7 3.05 0.65L3.05 0.65Q3.05-0.15 3.5-1.6 3.95-3.05 4.83-5.03 5.7-7 6.93-9.4 8.15-11.8 9.7-14.55L9.7-14.55Q8.4-14.6 7.38-14.63 6.35-14.65 5.7-14.65L5.7-14.65Q6-15.4 7.4-15.95 8.8-16.5 11.1-16.9L11.1-16.9Q13.05-20.15 15.28-23.1 17.5-26.05 19.75-28.53 22-31 24.25-32.88 26.5-34.75 28.55-35.85L28.55-35.85Q28.6-36.2 28.63-36.45 28.65-36.7 28.65-36.8L28.65-36.8Q29.35-36.8 30.53-36.45 31.7-36.1 32.83-35.6 33.95-35.1 34.83-34.58 35.7-34.05 35.8-33.7L35.8-33.7Q34.15-30.8 32.55-25.03 30.95-19.25 29.9-11.2L29.9-11.2Q29.65-9.2 29.48-6.65 29.3-4.1 29.3-0.95L29.3-0.95Q29.3 0.15 29.3 1.3 29.3 2.45 29.4 3.7L29.4 3.7Q29.3 3.75 29.2 3.75 29.1 3.75 28.8 3.75L28.8 3.75Q28.1 3.75 27.18 3.53 26.25 3.3 25.38 2.98 24.5 2.65 23.88 2.25 23.25 1.85 23.1 1.55L23.1 1.55Q23.05 0.9 23.05 0.28 23.05-0.35 23.05-1.05L23.05-1.05Q23.05-4.15 23.28-7.35 23.5-10.55 24.05-13.95L24.05-13.95Q23.35-14 22.2-14.08 21.05-14.15 19.63-14.2 18.2-14.25 16.57-14.33 14.95-14.4 13.4-14.45L13.4-14.45Q12.2-12.2 11.15-9.98 10.1-7.75 9.35-5.5L9.35-5.5Q8.5-3.1 7.98-0.7 7.45 1.7 7.3 3.8ZM26.6-26.25L26.6-26.25Q26.8-26.95 27.08-28.18 27.35-29.4 27.6-30.75L27.6-30.75Q26.35-30.3 24.83-29.1 23.3-27.9 21.68-26.13 20.05-24.35 18.38-22.13 16.7-19.9 15.15-17.4L15.15-17.4Q19.35-17.75 24.7-17.85L24.7-17.85Q25.1-19.95 25.58-22.03 26.05-24.1 26.6-26.25ZM35.55-3.2L35.55-3.2Q35.55-5.4 36.6-9.38 37.65-13.35 39.55-18.65L39.55-18.65Q42.65-27.1 45.37-32.73 48.1-38.35 50.7-41.5L50.7-41.5Q51.3-41.4 52.17-41 53.05-40.6 53.9-40.13 54.75-39.65 55.42-39.15 56.1-38.65 56.3-38.35L56.3-38.35Q52.4-33.75 49.45-28.45 46.5-23.15 44.05-16.3L44.05-16.3Q41.95-10.4 40.85-5.68 39.75-0.95 39.75 2.2L39.75 2.2Q39.75 3.05 39.75 3.25 39.75 3.45 39.8 3.65L39.8 3.65Q39.1 3.55 38.6 3.3 38.1 3.05 37.95 2.7L37.95 2.7Q37.85 2.45 37.4 1.98 36.95 1.5 36.6 1.25L36.6 1.25Q36.15 0.95 35.85-0.33 35.55-1.6 35.55-3.2ZM47.34-3.2L47.34-3.2Q47.34-5.4 48.4-9.38 49.45-13.35 51.34-18.65L51.34-18.65Q54.45-27.1 57.17-32.73 59.9-38.35 62.5-41.5L62.5-41.5Q63.09-41.4 63.97-41 64.84-40.6 65.7-40.13 66.55-39.65 67.22-39.15 67.9-38.65 68.09-38.35L68.09-38.35Q64.2-33.75 61.25-28.45 58.3-23.15 55.84-16.3L55.84-16.3Q53.75-10.4 52.65-5.68 51.55-0.95 51.55 2.2L51.55 2.2Q51.55 3.05 51.55 3.25 51.55 3.45 51.59 3.65L51.59 3.65Q50.9 3.55 50.4 3.3 49.9 3.05 49.75 2.7L49.75 2.7Q49.65 2.45 49.2 1.98 48.75 1.5 48.4 1.25L48.4 1.25Q47.95 0.95 47.65-0.33 47.34-1.6 47.34-3.2ZM76.89-20.7L76.89-20.7Q76.69-17.6 75.79-15.38 74.89-13.15 73.22-11.48 71.54-9.8 69.14-8.45 66.74-7.1 63.54-5.85L63.54-5.85Q63.54-5.55 63.52-5.23 63.49-4.9 63.49-4.55L63.49-4.55Q63.49-3.9 63.59-3.2 63.69-2.5 63.94-1.9 64.19-1.3 64.64-0.93 65.09-0.55 65.79-0.55L65.79-0.55Q67.14-0.55 68.44-1.15 69.74-1.75 70.92-2.63 72.09-3.5 73.12-4.53 74.14-5.55 74.94-6.4L74.94-6.4Q75.44-5.95 75.79-5.55L75.79-5.55Q73.54-2.55 70.87-0.58 68.19 1.4 65.79 1.95L65.79 1.95Q62.34 1.55 60.42-0.58 58.49-2.7 58.49-5.7L58.49-5.7Q58.49-7.75 59.07-9.88 59.64-12 60.67-13.98 61.69-15.95 63.07-17.7 64.44-19.45 66.02-20.75 67.59-22.05 69.27-22.8 70.94-23.55 72.59-23.55L72.59-23.55Q74.89-23.25 76.89-20.7ZM73.44-19.05L73.44-19.05Q72.09-18.85 70.64-17.95 69.19-17.05 67.92-15.55 66.64-14.05 65.59-12.05 64.54-10.05 63.94-7.75L63.94-7.75Q67.94-9.75 70.59-12.68 73.24-15.6 73.44-19.05ZM77.39-0.7L77.39-0.7Q77.39-1.5 78.79-3.28 80.19-5.05 82.52-7.33 84.84-9.6 87.87-12.13 90.89-14.65 94.14-17L94.14-17Q92.04-17.45 90.81-17.65 89.59-17.85 88.84-17.85L88.84-17.85Q87.39-17.85 86.24-17.45 85.09-17.05 83.99-16.15L83.99-16.15Q81.69-18.15 81.69-20.75L81.69-20.75Q81.69-21.55 81.74-21.7L81.74-21.7Q82.59-22.55 83.77-23 84.94-23.45 86.24-23.45L86.24-23.45Q87.64-23.45 89.09-23 90.54-22.55 91.94-22.03 93.34-21.5 94.56-21.05 95.79-20.6 96.74-20.6L96.74-20.6Q97.29-20.6 97.97-20.75 98.64-20.9 99.09-21.15L99.09-21.15Q99.54-20.8 99.92-19.75 100.29-18.7 100.29-17.7L100.29-17.7Q98.74-17.1 96.56-15.6 94.39-14.1 92.14-12.15 89.89-10.2 87.77-8 85.64-5.8 84.24-3.85L84.24-3.85Q85.29-3.4 87.09-3.4L87.09-3.4Q88.24-3.4 89.44-3.6 90.64-3.8 91.77-4.15 92.89-4.5 93.84-4.98 94.79-5.45 95.44-6L95.44-6Q97.79-4.5 97.79-1.6L97.79-1.6Q97.79-1.2 97.77-0.95 97.74-0.7 97.69-0.35L97.69-0.35Q95.39 1.1 92.69 1.1L92.69 1.1Q91.34 1.1 89.99 0.83 88.64 0.55 87.37 0.25 86.09-0.05 84.97-0.33 83.84-0.6 82.89-0.6L82.89-0.6Q80.49-0.6 78.99 1.65L78.99 1.65Q78.34 1.4 77.92 0.75 77.49 0.1 77.39-0.7Z" opacity="1" transform="matrix(1,0,0,1,0,0)" fill="#d36d15" class="undefined-text-0" data-fill-palette-color="primary" id="text-0"></path></svg></g></svg></g></svg></g></svg></g></svg></g><defs></defs></svg><rect width="395.52" height="184.23707969151667" fill="none" stroke="none" visibility="hidden"></rect></g></svg></g></svg>